REM DIRINDEX 1\2\4,1\2\5,1\2\6,1\3\7,1\3\8,1\3\9,1\3\10
REM DIRNAME cjc057,folder01,folder02,folder03,folder04,folder05,folder06,folder07,folder08,folder09
TITLE ""
FILE "b_125.mp3" MP3
  TRACK 01 AUDIO
    TITLE "0:"
    INDEX 01 00:00:00
  TRACK 02 AUDIO
    TITLE "7:cjc057_07839"
    INDEX 01 00:00:11
  TRACK 03 AUDIO
    TITLE "0:"
    INDEX 01 00:01:44
  TRACK 04 AUDIO
    TITLE "8:cjc057_07840"
    INDEX 01 00:01:73
  TRACK 05 AUDIO
    TITLE "0:"
    INDEX 01 00:05:40
  TRACK 06 AUDIO
    TITLE "7:cjc057_07841"
    INDEX 01 00:06:41
  TRACK 07 AUDIO
    TITLE "0:"
    INDEX 01 00:07:70
  TRACK 08 AUDIO
    TITLE "8:cjc057_07842"
    INDEX 01 00:08:24
  TRACK 09 AUDIO
    TITLE "0:"
    INDEX 01 00:10:37
  TRACK 10 AUDIO
    TITLE "7:cjc057_07843"
    INDEX 01 00:11:42
  TRACK 11 AUDIO
    TITLE "0:"
    INDEX 01 00:12:58
  TRACK 12 AUDIO
    TITLE "8:cjc057_07844"
    INDEX 01 00:13:12
  TRACK 13 AUDIO
    TITLE "0:"
    INDEX 01 00:15:27
  TRACK 14 AUDIO
    TITLE "7:cjc057_07845"
    INDEX 01 00:16:32
  TRACK 15 AUDIO
    TITLE "0:"
    INDEX 01 00:17:49
  TRACK 16 AUDIO
    TITLE "8:cjc057_07846"
    INDEX 01 00:18:03
  TRACK 17 AUDIO
    TITLE "0:"
    INDEX 01 00:20:10
  TRACK 18 AUDIO
    TITLE "7:cjc057_07847"
    INDEX 01 00:21:17
  TRACK 19 AUDIO
    TITLE "0:"
    INDEX 01 00:22:38
  TRACK 20 AUDIO
    TITLE "8:cjc057_07848"
    INDEX 01 00:22:68
  TRACK 21 AUDIO
    TITLE "0:"
    INDEX 01 00:26:28
  TRACK 22 AUDIO
    TITLE "7:cjc057_07849"
    INDEX 01 00:27:32
  TRACK 23 AUDIO
    TITLE "0:"
    INDEX 01 00:28:62
  TRACK 24 AUDIO
    TITLE "8:cjc057_07850"
    INDEX 01 00:29:17
  TRACK 25 AUDIO
    TITLE "0:"
    INDEX 01 00:30:16
  TRACK 26 AUDIO
    TITLE "7:cjc057_07851"
    INDEX 01 00:31:18
  TRACK 27 AUDIO
    TITLE "0:"
    INDEX 01 00:32:29
  TRACK 28 AUDIO
    TITLE "8:cjc057_07852"
    INDEX 01 00:32:58
  TRACK 29 AUDIO
    TITLE "0:"
    INDEX 01 00:33:73
  TRACK 30 AUDIO
    TITLE "7:cjc057_07853"
    INDEX 01 00:35:04
  TRACK 31 AUDIO
    TITLE "0:"
    INDEX 01 00:36:17
  TRACK 32 AUDIO
    TITLE "8:cjc057_07854"
    INDEX 01 00:36:46
  TRACK 33 AUDIO
    TITLE "0:"
    INDEX 01 00:37:57
  TRACK 34 AUDIO
    TITLE "7:cjc057_07855"
    INDEX 01 00:38:61
  TRACK 35 AUDIO
    TITLE "0:"
    INDEX 01 00:39:70
  TRACK 36 AUDIO
    TITLE "8:cjc057_07856"
    INDEX 01 00:40:24
  TRACK 37 AUDIO
    TITLE "0:"
    INDEX 01 00:42:49
  TRACK 38 AUDIO
    TITLE "7:cjc057_07857"
    INDEX 01 00:43:56
  TRACK 39 AUDIO
    TITLE "0:"
    INDEX 01 00:44:73
  TRACK 40 AUDIO
    TITLE "8:cjc057_07858"
    INDEX 01 00:45:30
  TRACK 41 AUDIO
    TITLE "0:"
    INDEX 01 00:48:44
  TRACK 42 AUDIO
    TITLE "7:cjc057_07859"
    INDEX 01 00:49:47
  TRACK 43 AUDIO
    TITLE "0:"
    INDEX 01 00:50:70
  TRACK 44 AUDIO
    TITLE "8:cjc057_07860"
    INDEX 01 00:51:24
  TRACK 45 AUDIO
    TITLE "0:"
    INDEX 01 00:53:25
  TRACK 46 AUDIO
    TITLE "7:cjc057_07861"
    INDEX 01 00:54:32
  TRACK 47 AUDIO
    TITLE "0:"
    INDEX 01 00:55:40
  TRACK 48 AUDIO
    TITLE "8:cjc057_07862"
    INDEX 01 00:55:69
  TRACK 49 AUDIO
    TITLE "0:"
    INDEX 01 00:57:23
  TRACK 50 AUDIO
    TITLE "7:cjc057_07863"
    INDEX 01 00:58:28
  TRACK 51 AUDIO
    TITLE "0:"
    INDEX 01 00:59:45
  TRACK 52 AUDIO
    TITLE "8:cjc057_07864"
    INDEX 01 01:00:00
  TRACK 53 AUDIO
    TITLE "0:"
    INDEX 01 01:01:74
  TRACK 54 AUDIO
    TITLE "7:cjc057_07865"
    INDEX 01 01:03:04
  TRACK 55 AUDIO
    TITLE "0:"
    INDEX 01 01:04:25
  TRACK 56 AUDIO
    TITLE "8:cjc057_07866"
    INDEX 01 01:04:52
  TRACK 57 AUDIO
    TITLE "0:"
    INDEX 01 01:07:14
  TRACK 58 AUDIO
    TITLE "7:cjc057_07867"
    INDEX 01 01:08:17
  TRACK 59 AUDIO
    TITLE "0:"
    INDEX 01 01:09:34
  TRACK 60 AUDIO
    TITLE "8:cjc057_07868"
    INDEX 01 01:09:65
  TRACK 61 AUDIO
    TITLE "0:"
    INDEX 01 01:12:01
  TRACK 62 AUDIO
    TITLE "7:cjc057_07869"
    INDEX 01 01:13:08
  TRACK 63 AUDIO
    TITLE "0:"
    INDEX 01 01:14:21
  TRACK 64 AUDIO
    TITLE "8:cjc057_07870"
    INDEX 01 01:14:49
  TRACK 65 AUDIO
    TITLE "0:"
    INDEX 01 01:15:70
  TRACK 66 AUDIO
    TITLE "7:cjc057_07871"
    INDEX 01 01:17:00
  TRACK 67 AUDIO
    TITLE "0:"
    INDEX 01 01:18:17
  TRACK 68 AUDIO
    TITLE "8:cjc057_07872"
    INDEX 01 01:18:47
  TRACK 69 AUDIO
    TITLE "0:"
    INDEX 01 01:20:51
  TRACK 70 AUDIO
    TITLE "7:cjc057_07873"
    INDEX 01 01:21:55
  TRACK 71 AUDIO
    TITLE "0:"
    INDEX 01 01:22:70
  TRACK 72 AUDIO
    TITLE "8:cjc057_07874"
    INDEX 01 01:23:24
  TRACK 73 AUDIO
    TITLE "0:"
    INDEX 01 01:24:37
  TRACK 74 AUDIO
    TITLE "7:cjc057_07875"
    INDEX 01 01:25:39
  TRACK 75 AUDIO
    TITLE "0:"
    INDEX 01 01:26:46
  TRACK 76 AUDIO
    TITLE "8:cjc057_07876"
    INDEX 01 01:27:03
  TRACK 77 AUDIO
    TITLE "0:"
    INDEX 01 01:28:31
  TRACK 78 AUDIO
    TITLE "7:cjc057_07877"
    INDEX 01 01:29:35
  TRACK 79 AUDIO
    TITLE "0:"
    INDEX 01 01:30:50
  TRACK 80 AUDIO
    TITLE "8:cjc057_07878"
    INDEX 01 01:31:04
  TRACK 81 AUDIO
    TITLE "0:"
    INDEX 01 01:32:04
  TRACK 82 AUDIO
    TITLE "7:cjc057_07879"
    INDEX 01 01:33:09
  TRACK 83 AUDIO
    TITLE "0:"
    INDEX 01 01:34:40
  TRACK 84 AUDIO
    TITLE "8:cjc057_07880"
    INDEX 01 01:34:71
  TRACK 85 AUDIO
    TITLE "0:"
    INDEX 01 01:36:31
  TRACK 86 AUDIO
    TITLE "7:cjc057_07881"
    INDEX 01 01:37:36
  TRACK 87 AUDIO
    TITLE "0:"
    INDEX 01 01:38:55
  TRACK 88 AUDIO
    TITLE "8:cjc057_07882"
    INDEX 01 01:39:12
  TRACK 89 AUDIO
    TITLE "0:"
    INDEX 01 01:41:12
  TRACK 90 AUDIO
    TITLE "7:cjc057_07883"
    INDEX 01 01:42:18
  TRACK 91 AUDIO
    TITLE "0:"
    INDEX 01 01:43:25
  TRACK 92 AUDIO
    TITLE "8:cjc057_07884"
    INDEX 01 01:43:52
  TRACK 93 AUDIO
    TITLE "0:"
    INDEX 01 01:44:62
  TRACK 94 AUDIO
    TITLE "7:cjc057_07885"
    INDEX 01 01:45:65
  TRACK 95 AUDIO
    TITLE "0:"
    INDEX 01 01:47:11
  TRACK 96 AUDIO
    TITLE "8:cjc057_07886"
    INDEX 01 01:47:40
  TRACK 97 AUDIO
    TITLE "0:"
    INDEX 01 01:49:65
  TRACK 98 AUDIO
    TITLE "7:cjc057_07887"
    INDEX 01 01:50:70
  TRACK 99 AUDIO
    TITLE "0:"
    INDEX 01 01:52:10
  TRACK 100 AUDIO
    TITLE "8:cjc057_07888"
    INDEX 01 01:52:40
  TRACK 101 AUDIO
    TITLE "0:"
    INDEX 01 01:53:61
  TRACK 102 AUDIO
    TITLE "7:cjc057_07889"
    INDEX 01 01:54:64
  TRACK 103 AUDIO
    TITLE "0:"
    INDEX 01 01:55:73
  TRACK 104 AUDIO
    TITLE "8:cjc057_07890"
    INDEX 01 01:56:28
  TRACK 105 AUDIO
    TITLE "0:"
    INDEX 01 01:58:34
  TRACK 106 AUDIO
    TITLE "7:cjc057_07891"
    INDEX 01 01:59:38
  TRACK 107 AUDIO
    TITLE "0:"
    INDEX 01 02:00:53
  TRACK 108 AUDIO
    TITLE "8:cjc057_07892"
    INDEX 01 02:01:05
  TRACK 109 AUDIO
    TITLE "0:"
    INDEX 01 02:04:60
  TRACK 110 AUDIO
    TITLE "7:cjc057_07893"
    INDEX 01 02:05:64
  TRACK 111 AUDIO
    TITLE "0:"
    INDEX 01 02:07:08
  TRACK 112 AUDIO
    TITLE "8:cjc057_07894"
    INDEX 01 02:07:37
  TRACK 113 AUDIO
    TITLE "0:"
    INDEX 01 02:11:43
